<svg xmlns="http://www.w3.org/2000/svg" viewBox="0 0 22.52 10.44"><g id="レイヤー_2" data-name="レイヤー 2"><g id="レイヤー_1-2" data-name="レイヤー 1"><path d="M6.11,9.31a2.22,2.22,0,0,1-.18.82c-.13.3-.29.38-.48.26a5.37,5.37,0,0,1-.84-.93,5,5,0,0,0-1-1l-.2-.16s0-.07,0-.08.05,0,.1,0a.75.75,0,0,1,.2.08L4,8.45l.52.22a1,1,0,0,0,.39.07.15.15,0,0,0,.17-.17c0-.1,0-.65,0-1.66A5.1,5.1,0,0,0,5,5.25a1.83,1.83,0,0,1-.25-.35,2.62,2.62,0,0,1-.17-.33,12.53,12.53,0,0,0-2.05.91,2.78,2.78,0,0,0-1,.75A.47.47,0,0,1,1,6.44a1.19,1.19,0,0,1-.65-.25A1,1,0,0,1,0,5.81c0-.08,0-.14.16-.16s.06,0,.1,0l.12.1a.47.47,0,0,0,.19.06,1.52,1.52,0,0,0,.38,0c.16,0,.58-.22,1.28-.51l1.93-.78Q5,4.14,6.05,3.86a6.91,6.91,0,0,1,1.73-.3l.38-.05a1.24,1.24,0,0,1,.68.14A2,2,0,0,1,9.53,4c.1.11.09.2,0,.28a2.56,2.56,0,0,1-.45.16l-.52.1a4.73,4.73,0,0,0-1.33.5L6.07,5.6v0c0,.14,0,.76,0,1.86S6.11,9.2,6.11,9.31Zm.79-8a2.41,2.41,0,0,0-.6.28A4.08,4.08,0,0,0,5.7,2a2.12,2.12,0,0,0-.4.41c-.08.11-.06.17,0,.19a1,1,0,0,1,.41.12.45.45,0,0,1,.19.2.19.19,0,0,1,0,.18.19.19,0,0,1-.14.11A2.86,2.86,0,0,0,5,3.46c-.29.14-.55.27-.78.4L3.5,4.3c-.29.17-.42.24-.4.2a1.6,1.6,0,0,1,.45-.35A2.87,2.87,0,0,0,4,3.8s.17-.2.42-.47.32-.4.21-.43a2.4,2.4,0,0,1-.28-.14.63.63,0,0,1-.14-.12.07.07,0,0,1,0-.1.32.32,0,0,1,.19,0,1.21,1.21,0,0,0,.41-.28,4.08,4.08,0,0,0,.56-.6A3.69,3.69,0,0,0,5.84,1c.08-.16.08-.24,0-.24A2.09,2.09,0,0,0,5,1.15a2.1,2.1,0,0,0-.7.55c-.07.11-.14.17-.23.17a.43.43,0,0,1-.23-.08l-.28-.21a1,1,0,0,0-.24-.15L3.2,1.36a.08.08,0,0,1,0-.07s0-.07.05-.12a.63.63,0,0,0,.44,0A3.85,3.85,0,0,0,4.31,1L5.1.76A4.48,4.48,0,0,1,5.65.62,2.52,2.52,0,0,0,6,.54a.49.49,0,0,1,.45,0A1.28,1.28,0,0,1,6.7.71,1.69,1.69,0,0,1,7,.92a.2.2,0,0,1,.09.18C7.08,1.16,7,1.22,6.9,1.27ZM5,4.43a7.12,7.12,0,0,1,.58.49,1.86,1.86,0,0,1,.4.5l.06,0s.42-.27,1.16-.73,1-.68.91-.7A5.65,5.65,0,0,0,6.68,4,10.44,10.44,0,0,0,5,4.43Z"/><path d="M15.05,7.87c0,.2,0,.32-.05.36s-.17,0-.28-.08l-.3-.32c-.17-.16-.29-.24-.37-.22s-.08,0-.09,0,0,0,0-.07a.4.4,0,0,1,.15-.13h.2s.16-.27.42-.66.42-.63.46-.72a2.23,2.23,0,0,0,.13-.43s-.06,0-.18.09l-.56.42a5.28,5.28,0,0,0-.54.47l-.16.16a.68.68,0,0,1-.19.17.13.13,0,0,1-.15,0,.66.66,0,0,1-.12-.32,1.36,1.36,0,0,0,0-.17.64.64,0,0,1,0-.15A.24.24,0,0,1,13.41,6a.57.57,0,0,1,.17-.21l.68-.92A2.39,2.39,0,0,0,14.72,4a.75.75,0,0,0,0-.32s-.11,0-.25.11l-.81.48a8.63,8.63,0,0,0-.86.58,1.1,1.1,0,0,1-.43.26c-.1,0-.15-.06-.13-.26V4.54a.6.6,0,0,1,0-.19.23.23,0,0,1,.07-.13.26.26,0,0,1,.17,0,1.24,1.24,0,0,0,.57-.35A5.54,5.54,0,0,0,13.79,3a7.37,7.37,0,0,1,.61-.73l.78-.91a8.56,8.56,0,0,0,.53-.68c.14-.22.2-.36.17-.43a.89.89,0,0,1-.07-.18V0s0,0,.07,0a1.52,1.52,0,0,1,.56.24c.22.13.27.26.16.38L15.26,2c-.79.81-1.2,1.25-1.24,1.3l-.18.17a1.54,1.54,0,0,0-.19.2c-.05,0-.05.07,0,.07a.49.49,0,0,0,.23-.06c.09-.06.32-.17.66-.33s.53-.28.56-.35.08-.11.21-.09l.29,0A3.77,3.77,0,0,1,16,3a1.72,1.72,0,0,1,.42.14c.12.06.17.13.17.19s-.07.15-.2.23a4.91,4.91,0,0,0-1.15.95,5.25,5.25,0,0,0-.91,1s0,0,0,0l.14,0,.23-.12L15,5.27a3.26,3.26,0,0,0,.39-.35.73.73,0,0,1,.54-.25.94.94,0,0,1,.51.14c.07.06,0,.2-.09.4a12.2,12.2,0,0,1-.87,1L14.36,7.37a.86.86,0,0,1,.46.19A.52.52,0,0,1,15.05,7.87Zm-.69,1.45a.25.25,0,0,1,0,.24c0,.07-.1.11-.22.11s-.55-.28-.89-.76-.46-.76-.34-.83a.19.19,0,0,1,.21,0,1,1,0,0,1,.24.21l.2.18a.07.07,0,0,0,.11,0,.67.67,0,0,1,.09-.19.2.2,0,0,1,.1-.09.08.08,0,0,1,.09,0,.78.78,0,0,1,0,.19,1,1,0,0,0,.17.61Zm1.71-2a.26.26,0,0,1,.05.18A.22.22,0,0,1,16,7.6a.22.22,0,0,1-.14.06.12.12,0,0,1-.11,0,3.33,3.33,0,0,0-.39-.34.7.7,0,0,0-.35-.14l-.09,0s0,0,0,0L15.17,7a.75.75,0,0,1,.53,0A.69.69,0,0,1,16.07,7.29Zm3.18-5.95c-.12.22-.47.8-1.08,1.73L17.05,4.81,17,4.87s0,0,0,0l0-.1a.92.92,0,0,1,.1-.2c.33-.71.66-1.46,1-2.24s.46-1.25.38-1.39a.49.49,0,0,1-.06-.19.41.41,0,0,1,0-.12s0-.05.08-.05a.83.83,0,0,1,.38.1A1.27,1.27,0,0,0,19.2.8a.18.18,0,0,1,.17.11A.78.78,0,0,1,19.25,1.34Zm0,4.28a.75.75,0,0,1,.14.41.55.55,0,0,1-.11.34.35.35,0,0,1-.24.15.18.18,0,0,1-.21-.1A1.76,1.76,0,0,0,18.28,6a.9.9,0,0,0-.57-.17h-.15s0,0,0-.09a1,1,0,0,1,.18-.18,1,1,0,0,1,.76-.19A.86.86,0,0,1,19.25,5.62Zm3.2-1.77A5.1,5.1,0,0,0,22,5.2a6.52,6.52,0,0,0-.29,1.41,3.86,3.86,0,0,1-.39,1.86,12.9,12.9,0,0,1-.63,1.14,1.22,1.22,0,0,1-.26.28.14.14,0,0,1-.16,0,.63.63,0,0,1-.14-.17L20,9.61a7.48,7.48,0,0,1-1.41-1.36,4.48,4.48,0,0,1-1-1.38,1.23,1.23,0,0,1,0-.24s0,0,0,0a2,2,0,0,1,.15.2l.16.24a3.7,3.7,0,0,0,1.48,1.25c.54.22.85.19,1-.08a24.23,24.23,0,0,0,.54-2.87c.19-1.29.14-1.95-.12-2a3.62,3.62,0,0,0-1.14,0,1.94,1.94,0,0,0-1,.36.79.79,0,0,1-.25.06.18.18,0,0,1-.16-.06.38.38,0,0,1-.12-.23,11.81,11.81,0,0,0,1.24-.29,3.33,3.33,0,0,0,.95-.31.26.26,0,0,1,.18-.12H21l.63.08A1,1,0,0,1,22,3a2,2,0,0,1,.41.4A.34.34,0,0,1,22.45,3.85Z"/></g></g></svg>