<svg xmlns="http://www.w3.org/2000/svg" viewBox="0 0 160.31 615.69"><defs><style>.cls-1{fill:#ffffff88;}</style></defs><g id="レイヤー_2" data-name="レイヤー 2"><g id="レイヤー_1-2" data-name="レイヤー 1"><path class="cls-1" d="M26,40.84a26.62,26.62,0,0,0,5.76,2.51,21.68,21.68,0,0,0,6.69,1.15,9,9,0,0,0,5-1.25,7,7,0,0,1,2.41-3,21.91,21.91,0,0,1,4.71-2.61q1.45,3.56,2.4,5.65a11.07,11.07,0,0,0,2.2,3.34c1.81,1.54,3.2,1.71,4.18.53s2.09-5.27,3.35-12.24a4.45,4.45,0,0,1,.1-1.05,3.51,3.51,0,0,1,.53-1,104.87,104.87,0,0,1,11.4-2.93Q81,28.6,87.65,27.76a87.75,87.75,0,0,1-9,14.75q-5,6.6-8.16,7.85l.42.42q4.59.21,10.67-6.49A151.75,151.75,0,0,0,94.77,26.93c5.71-.56,10.53-.87,14.43-.94a32.21,32.21,0,0,1,8.79.73,29.39,29.39,0,0,0,5.75.63,16.7,16.7,0,0,0,4.18-.42q1.58-.42,1.89-1.05c.21-.42,0-.76-.53-1q-4-2.73-12.34-3A117.73,117.73,0,0,0,97.49,23q3.14-5.43,5.23-8.36c1.39-2,2.51-3.07,3.34-3.35q2.1-1.05-3-5.34T96.23.36c-.84-.7-1.57-.38-2.2.94A6.71,6.71,0,0,0,93.3,5a20.58,20.58,0,0,1-.52,8.27A80.05,80.05,0,0,1,89.33,24q-5.65.84-11.4,1.88T66.32,28.39A118.11,118.11,0,0,1,77.19,16.15q7.53-7.63,8.16-8.47-2.5,1.68-11.29,9.83T61.92,29.23a17.4,17.4,0,0,0-2.51.52l-1.67.52a3,3,0,0,1-.84-1.46,9.81,9.81,0,0,1-.21-2.3Q55.24,20,53,17.72a6.47,6.47,0,0,0-4.71-2.3c-1.25,0-1.81.63-1.67,1.89s.28,2.3.42,3.13a35.13,35.13,0,0,0,.63,4.61c.42,2.37,1,4.88,1.67,7.53Q44.35,34,36.09,36L24.48,38.85C24.06,39.27,24.58,39.93,26,40.84Z"/><path class="cls-1" d="M98.94,86.55A38.25,38.25,0,0,0,82,93.82c-.15-2.18-.2-4.65,1.3-6.24A8.37,8.37,0,0,1,85,86.33,326,326,0,0,0,118.39,62.9a1.91,1.91,0,0,0,.89-1.26,1.86,1.86,0,0,0-.84-1.33,30.65,30.65,0,0,0-10-5.62c-1.21-.41-2.69-.7-3.66.14a4.24,4.24,0,0,0-1.06,2.37C101.14,68.59,91.81,77,82.9,84.6a40.58,40.58,0,0,1,4.9-23.38,2.67,2.67,0,0,0,.47-1.33,2.54,2.54,0,0,0-1-1.65,46.35,46.35,0,0,0-10.88-7.42c-1-.5-2.69-.91-3.31.37-.71,1.49.86,3.37,1.44,4.63a13.53,13.53,0,0,1,.86,5.63q.11,17.07-.28,34.14a9.84,9.84,0,0,1-.45,3.24,10.61,10.61,0,0,1-3.05,3.7,56.9,56.9,0,0,0-10.51,13A81.57,81.57,0,0,1,75,99.73c-1.4,5.19.81,10.89,4.62,14.68s9,5.91,14.22,7.15c9,2.14,18.42,1.91,27.68,1.65,7.42-.21,15-.47,21.85-3.42,1.28-.56,2.63-1.33,3.08-2.65a3.07,3.07,0,0,0,.12-1.5,6.61,6.61,0,0,0-1.27-2.71c-4-5.43-6.36-7.12-11.71-11.24-4.34-3.35-12.23-8.53-16.82-11.53A26,26,0,0,0,98.94,86.55Zm24.7,20.54a4,4,0,0,1-2.28,1.91c-.23.09-.46.18-.68.25a37.37,37.37,0,0,1-12.9,1.57,87.39,87.39,0,0,1-21.2-3,7.11,7.11,0,0,1-4-2.2,6.28,6.28,0,0,1-1-2.94c-.55-4.32-.3-7.64,3.34-10.12A37.72,37.72,0,0,1,96,87.33,22,22,0,0,1,108,87c7.28,2.15,11.89,9.23,15,16.13C123.65,104.35,124.21,105.82,123.64,107.09Z"/><path class="cls-1" d="M75.22,182.62a180.61,180.61,0,0,1-15.67,9.47A40.77,40.77,0,0,1,83,187.75a23.13,23.13,0,0,0,5.5.34,5.76,5.76,0,0,0,4.54-2.75c1.34-2.61-.47-5.8-2.74-7.66A24.83,24.83,0,0,0,83.4,174c-1.15-.44-2.32-.84-3.47-1.25-8.12-2.88-16.45-6.55-21.66-13.42a28.55,28.55,0,0,1-5.51-15.11,39.82,39.82,0,0,1,2.28-16,49.29,49.29,0,0,1,2.14-5.22c.2-.41.4-.82.61-1.23.07-.14,1.82-3,1.82-3s-2.32,3.26-2.43,3.49c-.22.43-.43.86-.64,1.3A52.58,52.58,0,0,0,52.76,134c-.32,1.37-.59,2.75-.78,4.15a34.49,34.49,0,0,0,2.34,18.66C58.46,166.08,67,172.51,75,178.83c.79.62,1.66,1.49,1.41,2.46A2.62,2.62,0,0,1,75.22,182.62Z"/><path class="cls-1" d="M24.06,108.31c3.76-2.23,5.86-3.42,6.27-3.56a49.94,49.94,0,0,0,4.61-5.13q3.56-4.28,8-10.14-.22,4.6-1.57,18.62t-1.57,15.69a14.17,14.17,0,0,0-1.47,4,17.38,17.38,0,0,0-.21,2.3,7.73,7.73,0,0,0,1,1.68,33.28,33.28,0,0,0,2.3,3.13,15.16,15.16,0,0,0,2.3,2.41c.62.49,1.15.52,1.57.1q2.3-5,3.34-25.94T47.07,83.83a.19.19,0,0,0-.21-.21Q51.26,76.93,55,70.86a98.88,98.88,0,0,0,5.23-9.2,13.2,13.2,0,0,0,.73-4.4,4.62,4.62,0,0,0-.84-2.61,7.08,7.08,0,0,0-2.3-1.78,13,13,0,0,1-1.78-1c-1.25-.83-2.23-.73-2.92.32s-1,2.89-1,5.54Q50.62,67.1,35.88,88.54T11.09,116.26l.42.62A135.91,135.91,0,0,1,24.06,108.31Z"/><path class="cls-1" d="M4.49,221.31c4.09,3.45,9.29,6,14.63,5.56,4.86-.38,9.17-3.1,13.42-5.47a113.47,113.47,0,0,1,39.22-13.23A58.23,58.23,0,0,1,52.52,242.7c-1.2,1-2.52,2.16-2.82,3.71a6.92,6.92,0,0,0,.28,2.92l1.6,6.39a2.42,2.42,0,0,0,.65,1.34,2.24,2.24,0,0,0,2.23.06c2.27-.85,4.18-2.44,6.17-3.83A40.84,40.84,0,0,1,80,246.17c-6.9,10.73-14.61,22.13-26.58,26.51-1.79.66-3.86,1.34-4.58,3.09a5.68,5.68,0,0,0-.18,2.81,30,30,0,0,0,5,13.2c11.07-9.64,26.74-11.36,40.38-16.81,4.08-1.63,8.27-3.84,10.36-7.7l0-.06,12.14,16.9c1.55,2.17,3.17,5,1.89,7.33,2.57-3.77,5.27-8,4.79-12.52-.42-4-3.19-7.27-6-10.17A152.91,152.91,0,0,0,101,253.92c-.63-.5-1.57-1-2.17-.44a1.72,1.72,0,0,0-.18,1.71,35.3,35.3,0,0,0,4.22,9.79,134.74,134.74,0,0,1-33.09,6.9,87.63,87.63,0,0,1,24.59-22.95c1.06-.67,2.3-1.64,2-2.87a2.93,2.93,0,0,0-.86-1.34,48.63,48.63,0,0,0-8.27-7,4.88,4.88,0,0,0-2.4-1A5.55,5.55,0,0,0,81.69,238a35.38,35.38,0,0,1-17.82,5.71A73.27,73.27,0,0,1,81,224.19c1.59-1.27,3.41-2.86,3.16-4.88a5.37,5.37,0,0,0-1-2.25,40.74,40.74,0,0,0-8.86-9.48,170.87,170.87,0,0,1,52.39-3.7l-15,4.67q14.77.22,29.55.36c1.24,0,2.65,0,3.47-1,1.24-1.4.22-3.65-1.13-5-3.57-3.41-8.83-4.25-13.76-4.61l-1.55-.11c-14.76-.89-29.53.94-44,3.76-14.66,2.85-29.1,6.69-43.69,9.87-7.28,1.58-14.6,3-22,4.05-3.68.52-7.37.95-11.07,1.26-1,.07-4-.25-4.7.45C1.82,218.65,3.82,220.73,4.49,221.31Z"/><path class="cls-1" d="M94.81,431.18l3.44,4.35A206.15,206.15,0,0,1,117,404.83a42.89,42.89,0,0,0,43.32,12.95c-25.8-8.17-46.5-27.18-66.29-45.65l10.18-4.2c.94-.39,2-.93,2.2-1.93a2.76,2.76,0,0,0-.9-2.23c-3.1-3.5-8.18-4.69-12.84-4.21s-9,2.42-13.28,4.33c3-3.47,6.27-7.4,6.21-12s-5.61-9-9.31-6.26c3.16,11.38-4.82,24.58-16.36,27.07-1.56.33-3.24.53-4.5,1.5s-1.83,3.09-.63,4.14a4,4,0,0,0,2.71.66l8,0c-10.7,19-22.59,39-42.28,48.32,12.49-.09,21.55-11.46,28.65-21.73A103.82,103.82,0,0,0,63.31,426.6c2.08,2.95,5.47,5.95,8.71,6.51A5.1,5.1,0,0,0,76.39,432C74,464.21,82.3,496.39,93.9,526.57c7.85,20.41,17.21,40.2,26.09,60.18q-1.83-4.39-3.62-8.79c-3.88-9.55-7.66-19.14-11.25-28.8-13.65-36.82-27.47-77.23-23.18-117Zm-24.52-4.57a72.63,72.63,0,0,1-4.18-8.48,73.55,73.55,0,0,1-3.35-8.68,16.45,16.45,0,0,1,5.12-3.56,78.35,78.35,0,0,1,8.27-3.34v9a19.2,19.2,0,0,0-2,.94,9.56,9.56,0,0,0-2,1.57c-.56.28-.87.6-.94.94a1,1,0,0,0,.32.95,4.54,4.54,0,0,0,.94.73,2.16,2.16,0,0,0,1.15.31,4.85,4.85,0,0,1,1.46-.63,7,7,0,0,1,1.05-.2v2.71q-.63.63-2.83,3.25A20.28,20.28,0,0,0,70.29,426.61Zm14.64-51.68a113,113,0,0,1,10.78,9q5.33,5,13.07,12.55a25,25,0,0,0-3-1.25,14.56,14.56,0,0,0-2-.63,12.89,12.89,0,0,0-5.75,0,70.75,70.75,0,0,0-9.31,2.3c.14-.56.24-.94.31-1.15a.93.93,0,0,1,.53-.52c.55-1.68-1.23-3.8-5.34-6.39A61,61,0,0,1,77,383.93a3.46,3.46,0,0,0-1.67-.73,2.48,2.48,0,0,0-1.46.21,1.24,1.24,0,0,0-.74.94c-.07.42.18.83.74,1.25s1,2.17,1.46,4.81a86.29,86.29,0,0,1,.84,10.25q-2.1.63-8.16,2.51l-8.16,2.52c-1.12-.56-2.09-1.08-2.93-1.57a7.65,7.65,0,0,0-2.3-.95,129.51,129.51,0,0,0,8.79-11.71q4.19-6.27,8.57-13.39c2.79-.55,5.16-1.08,7.12-1.57S83,375.49,84.93,374.93ZM73,424.93a16.18,16.18,0,0,1,3.14-2.72l-.21,4.19a9.56,9.56,0,0,0-1.88.21c-.7.14-1.26.28-1.68.41C72.1,426.47,72.31,425.77,73,424.93Zm9.52-4.39c.35-2,.59-3.14.73-3.56a26.85,26.85,0,0,1,3.87-2.51,33.11,33.11,0,0,1,3.66-1.67,3.56,3.56,0,0,0,1.47-1.57,1.69,1.69,0,0,0-.42-1.88A4.84,4.84,0,0,0,89.33,408a7.89,7.89,0,0,0-4,.21q.63-2.94,1.26-5.13a31.92,31.92,0,0,1,1.25-3.66c1.54-.42,3.07-.8,4.6-1.15a17.67,17.67,0,0,1,3.77-.52q4.81-.84,4.08,5.12a35.79,35.79,0,0,1-3.24,11.19q-1.68,4.18-2.72,6.17a12.15,12.15,0,0,1-1.89,2.83c-.14,0-.2,0-.2.1v.32c-1.54.14-3.21.35-5,.62s-3.56.63-5.24,1.05A27.89,27.89,0,0,1,82.53,420.54Z"/><path class="cls-1" d="M120,586.75c4,9.67,8.1,19.3,12.19,28.94C128.38,605.93,124.24,596.32,120,586.75Z"/><path class="cls-1" d="M43.93,381.21q5.24-13.6,9-23.85a42.24,42.24,0,0,1,2.51-5.54A25.49,25.49,0,0,0,58,344.39a67.78,67.78,0,0,1,15.27-4.5q7.95-1.35,16.32-2a82.09,82.09,0,0,1,21.23.73q11.82,1.77,12.87.1,1-2.3-2.93-3.87a33.42,33.42,0,0,0-10.88-1.78q-16.74-.82-44.14,6.28T31,348.16c-1.67.28-2.23.73-1.67,1.36a9.53,9.53,0,0,0,3.45,2,36.19,36.19,0,0,0,5.33,1.68c1.81.41,3,.49,3.56.21,1.11-.84,2.06-1.57,2.82-2.2a8.55,8.55,0,0,1,2.2-1.36,19.22,19.22,0,0,1-.21,4.81c-.28,1.81-.7,4.12-1.25,6.9Q40,381,26.15,409.76T0,444.18v.63q8.58-2.1,16.84-12.35A129.76,129.76,0,0,0,31.9,408.51Q38.7,394.82,43.93,381.21Z"/><path class="cls-1" d="M70.81,328.7a77.55,77.55,0,0,1-10.56,6.69v.21a50.45,50.45,0,0,0,7.32-2.72,30.8,30.8,0,0,1,6.49-2.3,16.91,16.91,0,0,1,5-.21q3.77.21,5.85.21a4.18,4.18,0,0,0,3.25-1.25c.76-.84.87-2.23.31-4.19a22.32,22.32,0,0,0-10.35-7.63q-6.18-2.2-9.94-.73c-1.26.14-.94,1,.94,2.61a55.65,55.65,0,0,0,5.33,4.08Q76.15,324.73,70.81,328.7Z"/></g></g></svg>